<svg xmlns="http://www.w3.org/2000/svg" version="1.1" xmlns:xlink="http://www.w3.org/1999/xlink" xmlns:svgjs="http://svgjs.dev/svgjs" width="100%" height="100%" viewBox="0 0 1000 600"><rect width="1000" height="600" x="0" y="0" fill="#4a171e"/><g><rect width="333.3333333333333" height="333.3333333333333" rx="13.333333333333334" ry="13.333333333333334" y="212.13981138893342" fill="#E2V144" transform="matrix(0.6581800998861147,0,0,0.6581800998861145,0,50.677098710048625)" x="189.91757202148438"/><path d="M360.3070387405936 453.8064577230227L360.3070387405936 453.8064577230227Q344.0985625533565 453.8064577230227 330.4101321337464 450.34139479253554Q316.72170171413626 446.87633186204846 305.23831134119973 440.23257483830463L305.23831134119973 440.23257483830463L312.39753227195814 424.7113838604203Q320.759502319084 429.66556474450516 333.6460999944492 433.5888178145608Q346.5326976698144 437.51207088461643 359.90612236847113 437.51207088461643L359.90612236847113 437.51207088461643Q371.79042911353014 437.51207088461643 378.0905435325976 434.3906505588057Q384.39065795166505 431.2692302329951 386.7961561843998 424.6827469766973Q389.2016544171347 418.0676268366765 389.2016544171347 407.61516427776917L389.2016544171347 407.61516427776917Q389.2016544171347 401.4582342773169 385.87977590526276 397.1913386025849Q382.5578973933909 392.8958060441298 371.5040602762998 389.17301116013545L371.5040602762998 389.17301116013545L336.36660394813737 377.48916260113765Q321.2463293423756 372.4777079496068 314.60257231863176 364.65983869321855Q307.9588152948879 356.87060632055335 307.9588152948879 341.9507899008528L307.9588152948879 341.9507899008528Q307.9588152948879 327.97599064401226 314.34484036512447 319.6140205968864Q320.759502319084 311.2520505497606 331.81333943617506 307.5292556657662Q342.8958134369891 303.8064607817718 356.78470204266046 303.8064607817718L356.78470204266046 303.8064607817718Q375.42731334635545 303.8064607817718 386.9966143704611 306.67014915407515Q398.56591539456673 309.53383752637853 405.61058879043304 313.97255450344875L405.61058879043304 313.97255450344875L400.68504479007123 329.78011431856345Q394.15583530121955 326.2577776206303 384.33338418421897 323.19363106226564Q374.5109330672184 320.12948450390104 360.3070387405936 320.12948450390104L360.3070387405936 320.12948450390104Q344.499478925479 320.12948450390104 336.05159822718406 324.25319576001795Q327.6037175288891 328.3769070161348 327.6037175288891 342.0653374357449L327.6037175288891 342.0653374357449Q327.6037175288891 348.70909445948877 330.4674059011925 352.8900794830517Q333.3310942734958 357.0710645066146 342.6094445997588 360.27839548359435L342.6094445997588 360.27839548359435L379.23601888151893 372.678166135668Q394.15583530121955 377.7182576709219 401.02868739474764 385.96568018315565Q407.93017637199875 394.2131026953894 407.93017637199875 410.73658460357984L407.93017637199875 410.73658460357984Q407.93017637199875 430.8683138608726 396.81906548746167 442.35170423380913Q385.67931771920155 453.8064577230227 360.3070387405936 453.8064577230227Z " fill="yellow" transform="matrix(0.6581800998861147,0,0,0.6581800998861145,0,50.677098710048625)"/><path d="M639.3059269480466 453.80645775476927L639.3059269480466 453.80645775476927Q627.7932593532885 453.80645775476927 620.5838704225905 449.8384995060905Q613.3744814918925 445.87054125741173 609.9653906021827 439.3317931574764Q606.5842430804212 432.79304505754095 606.5842430804212 425.33216581530695L606.5842430804212 425.33216581530695Q606.5842430804212 417.48007942179476 609.6859569226981 412.11495277569395Q612.7876707649752 406.74982612959315 621.3662847251469 402.3906607296362Q629.972842053267 398.0035519617308 646.5712026146414 393.1972926745988L646.5712026146414 393.1972926745988Q655.2057033107101 390.65444619129056 660.4311131170687 388.6704670669512Q665.6285795554788 386.71443131056026 667.975822463148 383.6686042041801Q670.3510087387655 380.62277709779994 670.3510087387655 374.92233003631776L670.3510087387655 374.92233003631776Q670.3510087387655 370.7028814761031 669.0097270772403 367.2658472184447Q667.6963887836636 363.82881296078637 663.616657063191 361.76100373260164Q659.5369253427185 359.69319450441697 651.1818583261344 359.69319450441697L651.1818583261344 359.69319450441697Q640.7869254493139 359.69319450441697 635.9527227942335 361.8727772043954Q631.1464635071015 364.02441653642546 629.8331252135248 367.5173375299807Q628.4918435519996 371.0102585235359 628.4918435519996 375.22970708375067L628.4918435519996 375.22970708375067L628.4918435519996 379.84036279524355L610.7198615367905 379.84036279524355L610.7198615367905 375.11793361195686Q610.7198615367905 359.69319450441697 621.0309643097655 352.62352241346116Q631.3420670827406 345.55385032250535 651.7686690530517 345.55385032250535L651.7686690530517 345.55385032250535Q672.4188179669502 345.55385032250535 680.6062247758437 355.1943122647178Q688.8215749526855 364.80683083898185 688.8215749526855 380.9301541452328L688.8215749526855 380.9301541452328L688.8215749526855 425.33216581530695Q688.8215749526855 433.57545936009734 690.9173275488188 435.92270226776645Q693.0410235129003 438.297888543384 699.7194884525779 438.297888543384L699.7194884525779 438.297888543384L697.5678491205479 452.4372327252956L693.8234378154567 452.4372327252956Q683.4005615706878 452.4372327252956 678.789905859195 448.35750100482306Q674.1792501477021 444.27776928435054 671.8040638720845 436.9286635139104L671.8040638720845 436.9286635139104Q669.5685944362092 440.44952787541405 665.572692819582 444.38954275614435Q661.6047345709032 448.30161426892624 655.2615900466069 451.06800769582196Q648.9184455223105 453.80645775476927 639.3059269480466 453.80645775476927ZM641.5693397518703 440.05832072413585L641.5693397518703 440.05832072413585Q647.1580133415587 440.05832072413585 653.2496675543191 437.65519108056986Q659.3413217670794 435.2520614370039 664.0916943183145 431.2841031883251Q668.870010237498 427.2882015716979 670.3510087387655 422.4819422845659L670.3510087387655 422.4819422845659L670.3510087387655 395.0694983271444Q668.1714260387871 397.2211376591744 662.8342427606347 400.71405865272965Q657.4691161145338 404.2069796462849 647.5492204928369 407.057203177026L647.5492204928369 407.057203177026Q635.4776855391101 410.4942374346843 629.8331252135248 414.1268752679818Q624.1606215199911 417.7595131012792 624.1606215199911 424.74535508838966L624.1606215199911 424.74535508838966Q624.1606215199911 432.59744148190185 628.2403532404636 436.34185278699306Q632.3200849609361 440.05832072413585 641.5693397518703 440.05832072413585ZM727.0201589382057 451.6548184227392L727.0201589382057 347.5098860788963L745.4907251521257 347.5098860788963L745.4907251521257 357.6533286441807Q750.1013808636186 352.3440887339768 757.0872228507291 348.93499784426683Q764.0730648378396 345.55385032250535 775.3621854890101 345.55385032250535L775.3621854890101 345.55385032250535Q787.433720442737 345.55385032250535 794.8666563170226 349.326204995545Q802.2716488233597 353.1265030365331 805.9042866566571 359.2181572492935L805.9042866566571 359.2181572492935Q812.6945250681285 352.5396923096158 820.6863283013829 349.0467713160606Q828.7060749025857 345.55385032250535 839.9951955537562 345.55385032250535L839.9951955537562 345.55385032250535Q852.877088177988 345.55385032250535 860.337967420222 349.74535551477163Q867.798846662456 353.9089173390895 870.9843906085783 360.8388725903031Q874.1978779226491 367.76882784151667 874.1978779226491 376.012121386307L874.1978779226491 376.012121386307L874.1978779226491 451.6548184227392L855.727311708729 451.6548184227392L855.727311708729 374.92233003631776Q855.727311708729 367.1820171145994 850.3062983267313 363.43760580950817Q844.913228312682 359.69319450441697 835.2727663704695 359.69319450441697L835.2727663704695 359.69319450441697Q821.7202329154752 359.69319450441697 815.9359557501477 364.80683083898185Q810.1237352168719 369.9204671735467 810.1237352168719 377.49311988757444L810.1237352168719 377.49311988757444L810.1237352168719 451.6548184227392L791.6811123709002 451.6548184227392L791.6811123709002 374.92233003631776Q791.6811123709002 367.1820171145994 785.9806653094181 363.43760580950817Q780.2802182479359 359.69319450441697 770.6397563057235 359.69319450441697L770.6397563057235 359.69319450441697Q757.0872228507291 359.69319450441697 751.3029456854017 364.80683083898185Q745.4907251521257 369.9204671735467 745.4907251521257 377.49311988757444L745.4907251521257 377.49311988757444L745.4907251521257 451.6548184227392L727.0201589382057 451.6548184227392ZM937.741096637406 451.6548184227392L897.3629299519074 347.5098860788963L915.9452696376212 347.5098860788963L947.2697851078246 432.01063075498456L975.1852096883182 347.5098860788963L993.2645687509599 347.5098860788963L956.4072664269652 451.6548184227392L937.741096637406 451.6548184227392ZM1045.2112897671136 453.80645775476927L1045.2112897671136 453.80645775476927Q1033.726565540304 453.80645775476927 1026.517176609606 449.8384995060905Q1019.2798443109594 445.87054125741173 1015.898696789198 439.3317931574764Q1012.5175492674365 432.79304505754095 1012.5175492674365 425.33216581530695L1012.5175492674365 425.33216581530695Q1012.5175492674365 417.48007942179476 1015.591319741765 412.11495277569395Q1018.6930335840422 406.74982612959315 1027.2995909121623 402.3906607296362Q1035.8782048723338 398.0035519617308 1052.4765654337084 393.1972926745988L1052.4765654337084 393.1972926745988Q1061.1390094977255 390.65444619129056 1066.3364759361357 388.6704670669512Q1071.5618857424943 386.71443131056026 1073.9091286501634 383.6686042041801Q1076.2563715578326 380.62277709779994 1076.2563715578326 374.92233003631776L1076.2563715578326 374.92233003631776Q1076.2563715578326 370.7028814761031 1074.9430332642555 367.2658472184447Q1073.6017516027305 363.82881296078637 1069.522019882258 361.76100373260164Q1065.470231529734 359.69319450441697 1057.11516451315 359.69319450441697L1057.11516451315 359.69319450441697Q1046.6922882683807 359.69319450441697 1041.8860289812487 361.8727772043954Q1037.0797696941167 364.02441653642546 1035.7384880325917 367.5173375299807Q1034.425149739015 371.0102585235359 1034.425149739015 375.22970708375067L1034.425149739015 375.22970708375067L1034.425149739015 379.84036279524355L1016.6252243558574 379.84036279524355L1016.6252243558574 375.11793361195686Q1016.6252243558574 359.69319450441697 1026.9363271288325 352.62352241346116Q1037.275373269756 345.55385032250535 1057.701975240067 345.55385032250535L1057.701975240067 345.55385032250535Q1078.3241807860172 345.55385032250535 1086.5395309628589 355.1943122647178Q1094.7269377717525 364.80683083898185 1094.7269377717525 380.9301541452328L1094.7269377717525 380.9301541452328L1094.7269377717525 425.33216581530695Q1094.7269377717525 433.57545936009734 1096.850633735834 435.92270226776645Q1098.9463863319672 438.297888543384 1105.6248512716447 438.297888543384L1105.6248512716447 438.297888543384L1103.4732119396149 452.4372327252956L1099.756744002472 452.4372327252956Q1089.3338677577033 452.4372327252956 1084.7232120462104 448.35750100482306Q1080.0846129667689 444.27776928435054 1077.7373700590997 436.9286635139104L1077.7373700590997 436.9286635139104Q1075.4739572552762 440.44952787541405 1071.5059990065974 444.38954275614435Q1067.5100973899703 448.30161426892624 1061.1948962336223 451.06800769582196Q1054.851751709326 453.80645775476927 1045.2112897671136 453.80645775476927ZM1047.474702570937 440.05832072413585L1047.474702570937 440.05832072413585Q1053.0913195285743 440.05832072413585 1059.1829737413345 437.65519108056986Q1065.2746279540947 435.2520614370039 1070.02500050533 431.2841031883251Q1074.8033164245135 427.2882015716979 1076.2563715578326 422.4819422845659L1076.2563715578326 422.4819422845659L1076.2563715578326 395.0694983271444Q1074.1047322258023 397.2211376591744 1068.7396055797017 400.71405865272965Q1063.402422301549 404.2069796462849 1053.482526679852 407.057203177026L1053.482526679852 407.057203177026Q1041.383048358177 410.4942374346843 1035.7384880325917 414.1268752679818Q1030.0939277070065 417.7595131012792 1030.0939277070065 424.74535508838966L1030.0939277070065 424.74535508838966Q1030.0939277070065 432.59744148190185 1034.173659427479 436.34185278699306Q1038.2533911479513 440.05832072413585 1047.474702570937 440.05832072413585ZM1160.3659090826425 453.80645775476927L1160.3659090826425 453.80645775476927Q1148.8532414878846 453.80645775476927 1141.6438525571866 449.8384995060905Q1134.4344636264884 445.87054125741173 1131.0253727367785 439.3317931574764Q1127.644225215017 432.79304505754095 1127.644225215017 425.33216581530695L1127.644225215017 425.33216581530695Q1127.644225215017 417.48007942179476 1130.745939057294 412.11495277569395Q1133.8197095316227 406.74982612959315 1142.4262668597428 402.3906607296362Q1151.0328241878628 398.0035519617308 1167.6311847492375 393.1972926745988L1167.6311847492375 393.1972926745988Q1176.2656854453057 390.65444619129056 1181.4910952516645 388.6704670669512Q1186.688561690075 386.71443131056026 1189.035804597744 383.6686042041801Q1191.4109908733615 380.62277709779994 1191.4109908733615 374.92233003631776L1191.4109908733615 374.92233003631776Q1191.4109908733615 370.7028814761031 1190.0697092118362 367.2658472184447Q1188.7563709182596 363.82881296078637 1184.6766391977872 361.76100373260164Q1180.5969074773143 359.69319450441697 1172.2418404607304 359.69319450441697L1172.2418404607304 359.69319450441697Q1161.8189642159614 359.69319450441697 1157.0127049288294 361.8727772043954Q1152.2064456416974 364.02441653642546 1150.8651639801724 367.5173375299807Q1149.5518256865955 371.0102585235359 1149.5518256865955 375.22970708375067L1149.5518256865955 375.22970708375067L1149.5518256865955 379.84036279524355L1131.7798436713865 379.84036279524355L1131.7798436713865 375.11793361195686Q1131.7798436713865 359.69319450441697 1142.0909464443616 352.62352241346116Q1152.4020492173365 345.55385032250535 1172.8286511876477 345.55385032250535L1172.8286511876477 345.55385032250535Q1193.4508567335977 345.55385032250535 1201.6662069104395 355.1943122647178Q1209.8815570872816 364.80683083898185 1209.8815570872816 380.9301541452328L1209.8815570872816 380.9301541452328L1209.8815570872816 425.33216581530695Q1209.8815570872816 433.57545936009734 1211.9773096834147 435.92270226776645Q1214.101005647496 438.297888543384 1220.7794705871738 438.297888543384L1220.7794705871738 438.297888543384L1218.5998878871956 452.4372327252956L1214.8834199500525 452.4372327252956Q1204.4605437052837 452.4372327252956 1199.8498879937908 448.35750100482306Q1195.239232282298 444.27776928435054 1192.8640460066804 436.9286635139104L1192.8640460066804 436.9286635139104Q1190.6006332028567 440.44952787541405 1186.632674954178 444.38954275614435Q1182.6647167054991 448.30161426892624 1176.3215721812028 451.06800769582196Q1169.9784276569067 453.80645775476927 1160.3659090826425 453.80645775476927ZM1162.6293218864662 440.05832072413585L1162.6293218864662 440.05832072413585Q1168.2179954761546 440.05832072413585 1174.309649688915 437.65519108056986Q1180.4013039016754 435.2520614370039 1185.1516764529106 431.2841031883251Q1189.9299923720941 427.2882015716979 1191.4109908733615 422.4819422845659L1191.4109908733615 422.4819422845659L1191.4109908733615 395.0694983271444Q1189.231408173383 397.2211376591744 1183.8942248952305 400.71405865272965Q1178.5290982491297 404.2069796462849 1168.609202627433 407.057203177026L1168.609202627433 407.057203177026Q1156.537667673706 410.4942374346843 1150.8651639801724 414.1268752679818Q1145.2206036545872 417.7595131012792 1145.2206036545872 424.74535508838966L1145.2206036545872 424.74535508838966Q1145.2206036545872 432.59744148190185 1149.3003353750596 436.34185278699306Q1153.380067095532 440.05832072413585 1162.6293218864662 440.05832072413585ZM1244.3636731356587 418.7375309794747L1244.3636731356587 418.7375309794747L1244.3636731356587 379.4491556439654Q1244.3636731356587 363.744982856941 1254.758606012479 354.635444905749Q1265.1814822572478 345.55385032250535 1287.8714970313827 345.55385032250535L1287.8714970313827 345.55385032250535Q1292.7895297903087 345.55385032250535 1299.467994729986 346.6436416724946Q1306.1464596696637 347.70548965453537 1310.9527189567957 349.49386520323566L1310.9527189567957 349.49386520323566L1310.9527189567957 303.80645860753316L1329.423285170716 303.80645860753316L1329.423285170716 451.6548184227392L1316.848769593917 451.6548184227392L1313.8029424875367 444.7807499074225Q1309.2761168798893 448.30161426892624 1301.4799172222738 451.06800769582196Q1293.6557741967104 453.80645775476927 1285.6080842275592 453.80645775476927L1285.6080842275592 453.80645775476927Q1270.686325743091 453.80645775476927 1261.5767877918988 449.1958020432764Q1252.4951932086556 444.58514633178345 1248.4154614881827 436.6771732023744Q1244.3636731356587 428.7692000729653 1244.3636731356587 418.7375309794747ZM1310.9527189567957 433.1004221049738L1310.9527189567957 433.1004221049738L1310.9527189567957 364.02441653642546Q1306.8171005004265 362.0683807800345 1300.6975029197174 360.89475932619996Q1294.5499619710604 359.69319450441697 1288.067100607022 359.69319450441697L1288.067100607022 359.69319450441697Q1277.1691871071298 359.69319450441697 1269.9877415443798 363.744982856941Q1262.8062959816302 367.76882784151667 1262.8062959816302 377.3813464157807L1262.8062959816302 377.3813464157807L1262.8062959816302 420.10675600894837Q1262.8062959816302 429.85899142295455 1269.736251232844 434.5534772382928Q1276.6662064840575 439.27590642157946 1286.7817056813938 439.27590642157946L1286.7817056813938 439.27590642157946Q1294.661735442854 439.27590642157946 1301.228426910738 437.12426708954945Q1307.8230617465701 434.94468438957097 1310.9527189567957 433.1004221049738Z " fill="white" transform="matrix(0.6581800998861147,0,0,0.6581800998861145,0,50.677098710048625)"/></g></svg>